<svg width="500" height="150" viewBox="0 0 500 150" xmlns="http://www.w3.org/2000/svg">
  <rect width="500" height="150" fill="#0f2b46" />
  <rect x="15" y="15" width="470" height="120" fill="none" stroke="white" stroke-width="1.5" />
  <g fill="none" stroke="white" stroke-width="2.5" stroke-linecap="round" stroke-linejoin="round">
    <path d="M50 105 L85 45 L120 105" />
    <line x1="145" y1="45" x2="145" y2="105" />
    <circle cx="200" cy="75" r="30" />
    <line x1="220" y1="95" x2="235" y2="110" />
    <path d="M260 45 V85 A20 20 0 0 0 300 85 V45" />
    <line x1="330" y1="45" x2="330" y2="105" />
    <path d="M355 105 V45 H385 C400 45 400 75 385 75 H355 M380 75 L405 105" />
    <path d="M430 45 H465 M430 75 H460 M430 105 H465 M430 45 V105" />
  </g>
</svg>
